<svg width="29" height="28" viewBox="0 0 29 28" fill="none" xmlns="http://www.w3.org/2000/svg">
    <g clip-path="url(#clip0_20_554)">
    <path d="M13.3057 16.4308C13.5909 16.1456 14.0821 16.1456 14.3672 16.4308L18.4337 20.4973C19.1837 21.2472 20.1818 21.6592 21.238 21.6592H22.0355L16.9075 26.7872C15.3073 28.3451 12.7089 28.3451 11.1088 26.7872L5.95961 21.6433H6.45076C7.50699 21.6433 8.50513 21.2314 9.25506 20.4815L13.3057 16.4308ZM14.3672 12.5439C14.0292 12.8343 13.5962 12.8396 13.3057 12.5439L9.25506 8.4932C8.50513 7.69574 7.50699 7.33134 6.45076 7.33134H5.95961L11.1035 2.18537C12.7089 0.582742 15.3073 0.582742 16.9075 2.18537L22.0408 7.3155H21.238C20.1818 7.3155 19.1837 7.72743 18.4337 8.47736L14.3672 12.5439ZM6.45076 8.51961C7.17956 8.51961 7.85027 8.81535 8.41007 9.33291L12.4607 13.3836C12.841 13.7163 13.3374 13.9539 13.8391 13.9539C14.3355 13.9539 14.832 13.7163 15.2122 13.3836L19.2787 9.31707C19.7963 8.80479 20.5092 8.50905 21.238 8.50905H23.229L26.308 11.588C27.9082 13.1882 27.9082 15.7865 26.308 17.3867L23.229 20.4656H21.238C20.5092 20.4656 19.7963 20.1699 19.2787 19.6523L15.2122 15.5858C14.4781 14.8517 13.1948 14.8517 12.4607 15.5911L8.41007 19.6365C7.85027 20.154 7.17956 20.4498 6.45076 20.4498H4.77029L1.70615 17.3867C0.103525 15.7865 0.103525 13.1882 1.70615 11.588L4.77029 8.51961H6.45076Z" fill="white"/>
    </g>
    <defs>
    <clipPath id="clip0_20_554">
    <rect width="28" height="28" fill="white" transform="translate(0.5)"/>
    </clipPath>
    </defs>
</svg>
